<svg xmlns="http://www.w3.org/2000/svg" xmlns:xlink="http://www.w3.org/1999/xlink" width="170" zoomAndPan="magnify" viewBox="0 0 127.5 98.999996" height="132" preserveAspectRatio="xMidYMid meet" version="1.0"><defs><clipPath id="8b5111f500"><path d="M 21 74 L 55 74 L 55 98.804688 L 21 98.804688 Z M 21 74 " clip-rule="nonzero"/></clipPath><clipPath id="63cb1c0b2d"><path d="M 93 38 L 118.597656 38 L 118.597656 75 L 93 75 Z M 93 38 " clip-rule="nonzero"/></clipPath><clipPath id="38a5ee600d"><path d="M 28 0.191406 L 64 0.191406 L 64 29 L 28 29 Z M 28 0.191406 " clip-rule="nonzero"/></clipPath><clipPath id="b0e6430bee"><path d="M 39 0.191406 L 64 0.191406 L 64 17 L 39 17 Z M 39 0.191406 " clip-rule="nonzero"/></clipPath><clipPath id="7436c6ead8"><path d="M 8.78125 42 L 36 42 L 36 97 L 8.78125 97 Z M 8.78125 42 " clip-rule="nonzero"/></clipPath><clipPath id="9c0d207e27"><path d="M 69 65 L 118.597656 65 L 118.597656 98.804688 L 69 98.804688 Z M 69 65 " clip-rule="nonzero"/></clipPath><clipPath id="79d411c303"><path d="M 49 0.191406 L 96 0.191406 L 96 32 L 49 32 Z M 49 0.191406 " clip-rule="nonzero"/></clipPath></defs><path fill="#78c272" d="M 86.558594 73.589844 C 85.140625 73 83.980469 72.089844 83.070312 70.859375 C 82.714844 70.078125 82.53125 69.261719 82.511719 68.40625 C 82.492188 67.550781 82.644531 66.722656 82.964844 65.929688 C 83.230469 65.207031 83.382812 64.460938 83.425781 63.691406 C 83.289062 62.542969 82.820312 61.546875 82.027344 60.699219 C 81.253906 59.847656 80.585938 58.921875 80.027344 57.917969 C 79.839844 57.335938 79.804688 56.746094 79.925781 56.148438 C 80.046875 55.550781 80.304688 55.019531 80.699219 54.554688 C 81.582031 53.496094 83.335938 53.109375 84.238281 52.089844 C 85.035156 51.019531 85.714844 49.882812 86.273438 48.671875 C 87.058594 47.308594 88.046875 46.105469 89.230469 45.0625 C 89.75 44.570312 90.335938 44.171875 90.980469 43.863281 C 91.703125 43.585938 92.445312 43.398438 93.210938 43.300781 C 94.347656 43.078125 95.492188 42.925781 96.644531 42.84375 C 96.929688 44.230469 97.125 45.628906 97.226562 47.039062 C 97.332031 48.453125 97.347656 49.863281 97.269531 51.277344 C 97.195312 52.691406 97.03125 54.09375 96.773438 55.484375 C 96.519531 56.878906 96.175781 58.25 95.746094 59.597656 C 95.316406 60.945312 94.800781 62.261719 94.203125 63.546875 C 93.605469 64.832031 92.925781 66.070312 92.167969 67.269531 C 91.410156 68.46875 90.582031 69.613281 89.679688 70.707031 C 88.773438 71.800781 87.804688 72.832031 86.769531 73.800781 Z M 86.558594 73.589844 " fill-opacity="1" fill-rule="nonzero"/><path fill="#78c272" d="M 83.316406 27.558594 C 83.703125 28.289062 83.882812 29.0625 83.855469 29.886719 C 83.828125 30.710938 83.59375 31.472656 83.160156 32.171875 C 82.230469 33.59375 80.992188 34.65625 79.441406 35.359375 C 78.570312 35.859375 77.632812 36.113281 76.628906 36.117188 C 75.546875 35.988281 74.59375 35.566406 73.777344 34.847656 C 73.195312 34.441406 72.722656 33.929688 72.371094 33.3125 C 72.019531 32.695312 71.8125 32.035156 71.761719 31.328125 C 71.835938 30.222656 72.277344 29.289062 73.085938 28.527344 C 73.519531 28.097656 73.992188 27.714844 74.503906 27.382812 C 74.898438 27.152344 75.265625 26.882812 75.601562 26.574219 C 75.851562 26.308594 76.148438 26.109375 76.484375 25.972656 C 77.542969 25.511719 78.648438 25.335938 79.796875 25.445312 C 80.515625 25.507812 81.183594 25.726562 81.804688 26.097656 C 82.421875 26.46875 82.925781 26.953125 83.316406 27.558594 Z M 83.316406 27.558594 " fill-opacity="1" fill-rule="nonzero"/><path fill="#78c272" d="M 55.707031 81.621094 C 55.34375 81.496094 55.03125 81.296875 54.769531 81.019531 C 53.285156 79.816406 52.019531 78.414062 50.980469 76.8125 C 49.921875 74.867188 49.5 72.796875 49.707031 70.597656 C 49.917969 68.457031 50.363281 66.367188 51.050781 64.328125 C 51.375 63.542969 51.472656 62.734375 51.351562 61.898438 C 50.875 60.046875 48.324219 59.21875 47.6875 57.425781 C 47.554688 56.917969 47.53125 56.410156 47.625 55.894531 C 47.71875 55.378906 47.917969 54.910156 48.21875 54.484375 C 48.503906 53.941406 48.859375 53.449219 49.28125 53.003906 C 49.464844 52.820312 49.671875 52.667969 49.902344 52.546875 C 50.132812 52.421875 50.363281 52.300781 50.609375 52.195312 C 51.4375 51.828125 52.292969 51.539062 53.175781 51.332031 C 54.21875 51.101562 55.277344 50.960938 56.34375 50.910156 C 59.34375 50.519531 62.214844 50.953125 64.964844 52.210938 C 66.035156 52.792969 66.925781 53.578125 67.632812 54.566406 C 68.339844 55.558594 68.796875 56.648438 69 57.847656 C 69.15625 59.035156 69.035156 60.195312 68.640625 61.324219 C 68.246094 62.457031 67.613281 63.441406 66.75 64.273438 C 65.707031 65.277344 64.378906 66.019531 63.265625 66.949219 C 63.003906 67.152344 62.785156 67.394531 62.609375 67.671875 C 62.433594 68.0625 62.371094 68.464844 62.414062 68.886719 C 62.484375 70.226562 62.875 71.742188 62.007812 72.832031 C 61.417969 73.492188 60.679688 73.867188 59.796875 73.960938 C 58.9375 74.058594 58.074219 74.09375 57.210938 74.066406 C 56.757812 74.046875 56.324219 74.140625 55.917969 74.347656 C 55.492188 74.675781 55.265625 75.113281 55.246094 75.648438 C 55.035156 77.65625 56.378906 79.699219 55.707031 81.621094 Z M 55.707031 81.621094 " fill-opacity="1" fill-rule="nonzero"/><path fill="#78c272" d="M 67.707031 28.828125 C 67.707031 29.652344 67.496094 30.417969 67.078125 31.128906 C 66.660156 31.839844 66.09375 32.402344 65.371094 32.804688 C 64.042969 33.6875 62.484375 34.144531 61.070312 34.917969 C 58.980469 36.261719 57.015625 37.761719 55.175781 39.425781 C 55.132812 39.46875 55.085938 39.503906 55.035156 39.53125 C 54.300781 40.171875 53.453125 40.539062 52.484375 40.640625 C 50.714844 40.660156 49.050781 38.933594 47.40625 39.585938 C 47.132812 39.734375 46.890625 39.921875 46.679688 40.152344 C 46.472656 40.378906 46.304688 40.636719 46.179688 40.917969 C 46.054688 41.203125 45.976562 41.5 45.953125 41.808594 C 45.925781 42.117188 45.949219 42.421875 46.023438 42.71875 C 46.367188 43.925781 46.921875 45.023438 47.6875 46.011719 C 48.484375 47.003906 48.953125 48.132812 49.085938 49.394531 C 48.664062 49.464844 48.242188 49.5 47.8125 49.5 C 46.214844 49.382812 44.695312 48.984375 43.246094 48.308594 C 41.796875 47.632812 40.515625 46.71875 39.40625 45.574219 C 37.683594 44.003906 36.316406 42.171875 35.300781 40.078125 C 34.957031 39.328125 34.679688 38.554688 34.46875 37.753906 C 34.097656 36.347656 34 34.917969 34.183594 33.476562 C 35.976562 30.203125 38.253906 27.308594 41.019531 24.796875 C 43.785156 22.28125 46.886719 20.285156 50.324219 18.804688 C 51.828125 18.851562 53.308594 19.042969 54.769531 19.382812 C 56.234375 19.71875 57.648438 20.195312 59.019531 20.808594 C 60.386719 21.425781 61.679688 22.164062 62.902344 23.035156 C 64.121094 23.902344 65.246094 24.882812 66.273438 25.972656 C 67.054688 26.773438 67.535156 27.722656 67.707031 28.828125 Z M 67.707031 28.828125 " fill-opacity="1" fill-rule="nonzero"/><path fill="#6284ab" d="M 63.6875 16.042969 C 59.042969 16.035156 54.585938 16.957031 50.324219 18.804688 C 51.828125 18.851562 53.308594 19.042969 54.769531 19.382812 C 56.234375 19.71875 57.648438 20.195312 59.019531 20.808594 C 60.386719 21.425781 61.679688 22.164062 62.902344 23.035156 C 64.121094 23.902344 65.246094 24.882812 66.273438 25.972656 C 67.054688 26.773438 67.535156 27.722656 67.707031 28.828125 C 67.707031 29.652344 67.496094 30.417969 67.078125 31.128906 C 66.660156 31.839844 66.09375 32.402344 65.371094 32.804688 C 64.042969 33.6875 62.484375 34.144531 61.070312 34.917969 C 58.980469 36.261719 57.015625 37.761719 55.175781 39.425781 C 55.132812 39.46875 55.085938 39.503906 55.035156 39.53125 C 54.300781 40.171875 53.453125 40.539062 52.484375 40.640625 C 50.714844 40.660156 49.050781 38.933594 47.40625 39.585938 C 47.132812 39.734375 46.890625 39.921875 46.679688 40.152344 C 46.472656 40.378906 46.304688 40.636719 46.179688 40.917969 C 46.054688 41.203125 45.976562 41.5 45.953125 41.808594 C 45.925781 42.117188 45.949219 42.421875 46.023438 42.71875 C 46.367188 43.925781 46.921875 45.023438 47.6875 46.011719 C 48.484375 47.003906 48.953125 48.132812 49.085938 49.394531 C 48.664062 49.464844 48.242188 49.5 47.8125 49.5 C 46.214844 49.382812 44.695312 48.984375 43.246094 48.308594 C 41.796875 47.632812 40.515625 46.71875 39.40625 45.574219 C 37.683594 44.003906 36.316406 42.171875 35.300781 40.078125 C 34.957031 39.328125 34.679688 38.554688 34.46875 37.753906 C 34.097656 36.347656 34 34.917969 34.183594 33.476562 C 32.824219 35.929688 31.796875 38.511719 31.097656 41.226562 C 30.398438 43.941406 30.054688 46.699219 30.058594 49.5 C 30.058594 50.425781 30.097656 51.351562 30.175781 52.273438 C 30.253906 53.199219 30.367188 54.117188 30.523438 55.03125 C 30.675781 55.945312 30.867188 56.847656 31.097656 57.746094 C 31.324219 58.644531 31.59375 59.53125 31.894531 60.40625 C 32.199219 61.285156 32.539062 62.144531 32.914062 62.992188 C 33.289062 63.839844 33.699219 64.671875 34.144531 65.484375 C 34.589844 66.300781 35.070312 67.09375 35.578125 67.867188 C 36.089844 68.640625 36.632812 69.394531 37.207031 70.125 C 37.78125 70.851562 38.386719 71.558594 39.019531 72.238281 C 39.652344 72.914062 40.3125 73.566406 41 74.191406 C 41.6875 74.816406 42.398438 75.414062 43.136719 75.980469 C 43.875 76.546875 44.632812 77.078125 45.414062 77.582031 C 46.195312 78.085938 46.996094 78.554688 47.820312 78.992188 C 48.640625 79.429688 49.476562 79.832031 50.332031 80.199219 C 51.1875 80.566406 52.054688 80.898438 52.9375 81.195312 C 53.820312 81.492188 54.714844 81.75 55.617188 81.972656 C 58.265625 82.632812 60.957031 82.964844 63.6875 82.957031 C 65.816406 82.960938 67.925781 82.761719 70.015625 82.367188 C 72.105469 81.96875 74.140625 81.375 76.117188 80.59375 C 78.09375 79.808594 79.976562 78.84375 81.769531 77.703125 C 83.5625 76.558594 85.226562 75.261719 86.769531 73.800781 L 86.558594 73.589844 C 85.140625 73 83.980469 72.089844 83.070312 70.859375 C 82.714844 70.078125 82.53125 69.261719 82.511719 68.40625 C 82.492188 67.550781 82.644531 66.722656 82.964844 65.929688 C 83.230469 65.207031 83.382812 64.460938 83.425781 63.691406 C 83.289062 62.542969 82.820312 61.546875 82.027344 60.699219 C 81.253906 59.847656 80.585938 58.921875 80.027344 57.917969 C 79.839844 57.335938 79.804688 56.746094 79.925781 56.148438 C 80.046875 55.550781 80.304688 55.019531 80.699219 54.554688 C 81.582031 53.496094 83.335938 53.109375 84.238281 52.089844 C 85.035156 51.019531 85.714844 49.882812 86.273438 48.671875 C 87.058594 47.308594 88.046875 46.105469 89.230469 45.0625 C 89.75 44.570312 90.335938 44.171875 90.980469 43.863281 C 91.703125 43.585938 92.445312 43.398438 93.210938 43.300781 C 94.347656 43.078125 95.492188 42.925781 96.644531 42.84375 C 96.453125 41.90625 96.222656 40.980469 95.953125 40.0625 C 95.683594 39.144531 95.371094 38.242188 95.023438 37.351562 C 94.675781 36.460938 94.289062 35.585938 93.863281 34.730469 C 93.4375 33.871094 92.980469 33.03125 92.484375 32.214844 C 91.988281 31.394531 91.457031 30.601562 90.890625 29.828125 C 90.324219 29.054688 89.730469 28.304688 89.097656 27.582031 C 88.46875 26.863281 87.8125 26.167969 87.121094 25.5 C 86.433594 24.835938 85.714844 24.199219 84.972656 23.59375 C 84.226562 22.988281 83.460938 22.417969 82.667969 21.878906 C 81.875 21.339844 81.058594 20.835938 80.222656 20.363281 C 79.386719 19.894531 78.53125 19.460938 77.65625 19.0625 C 76.78125 18.667969 75.890625 18.308594 74.988281 17.988281 C 74.082031 17.664062 73.164062 17.382812 72.234375 17.140625 C 71.308594 16.898438 70.367188 16.695312 69.421875 16.53125 C 68.476562 16.367188 67.523438 16.246094 66.566406 16.164062 C 65.609375 16.082031 64.648438 16.042969 63.6875 16.042969 Z M 66.75 64.273438 C 65.707031 65.277344 64.378906 66.019531 63.265625 66.949219 C 63.003906 67.152344 62.785156 67.394531 62.609375 67.671875 C 62.433594 68.0625 62.371094 68.464844 62.414062 68.886719 C 62.484375 70.226562 62.875 71.742188 62.007812 72.832031 C 61.417969 73.492188 60.679688 73.867188 59.796875 73.960938 C 58.9375 74.058594 58.074219 74.09375 57.210938 74.066406 C 56.757812 74.046875 56.324219 74.140625 55.917969 74.347656 C 55.492188 74.675781 55.265625 75.113281 55.246094 75.648438 C 55.035156 77.65625 56.378906 79.699219 55.707031 81.621094 C 55.34375 81.496094 55.03125 81.296875 54.769531 81.019531 C 53.285156 79.816406 52.019531 78.414062 50.980469 76.8125 C 49.921875 74.867188 49.5 72.796875 49.707031 70.597656 C 49.917969 68.457031 50.363281 66.367188 51.050781 64.328125 C 51.375 63.542969 51.472656 62.734375 51.351562 61.898438 C 50.875 60.046875 48.324219 59.21875 47.6875 57.425781 C 47.554688 56.917969 47.53125 56.410156 47.625 55.894531 C 47.71875 55.378906 47.917969 54.910156 48.21875 54.484375 C 48.503906 53.941406 48.859375 53.449219 49.28125 53.003906 C 49.464844 52.820312 49.671875 52.667969 49.902344 52.546875 C 50.132812 52.421875 50.363281 52.300781 50.609375 52.195312 C 51.4375 51.828125 52.292969 51.539062 53.175781 51.332031 C 54.21875 51.101562 55.277344 50.960938 56.34375 50.910156 C 59.34375 50.519531 62.214844 50.953125 64.964844 52.210938 C 66.035156 52.792969 66.925781 53.578125 67.632812 54.566406 C 68.339844 55.558594 68.796875 56.648438 69 57.847656 C 69.15625 59.035156 69.035156 60.195312 68.640625 61.324219 C 68.246094 62.457031 67.613281 63.441406 66.75 64.273438 Z M 83.160156 32.171875 C 82.230469 33.59375 80.992188 34.65625 79.441406 35.359375 C 78.570312 35.859375 77.632812 36.113281 76.628906 36.117188 C 75.546875 35.988281 74.59375 35.566406 73.777344 34.847656 C 73.195312 34.441406 72.722656 33.929688 72.371094 33.3125 C 72.019531 32.695312 71.8125 32.035156 71.761719 31.328125 C 71.835938 30.222656 72.277344 29.289062 73.085938 28.527344 C 73.519531 28.097656 73.992188 27.714844 74.503906 27.382812 C 74.898438 27.152344 75.265625 26.882812 75.601562 26.574219 C 75.851562 26.308594 76.148438 26.109375 76.484375 25.972656 C 77.542969 25.511719 78.648438 25.335938 79.796875 25.445312 C 80.578125 25.480469 81.300781 25.714844 81.957031 26.140625 C 82.613281 26.566406 83.113281 27.128906 83.464844 27.824219 C 83.8125 28.523438 83.960938 29.261719 83.90625 30.039062 C 83.851562 30.816406 83.601562 31.527344 83.160156 32.171875 Z M 83.160156 32.171875 " fill-opacity="1" fill-rule="nonzero"/><g clip-path="url(#8b5111f500)"><path fill="#6fb669" d="M 54.839844 81.777344 L 54.839844 98.808594 L 35 98.808594 C 31.839844 98.8125 28.835938 98.140625 25.988281 96.78125 C 25.445312 96.425781 24.941406 96.011719 24.484375 95.550781 C 23.4375 94.503906 22.628906 93.300781 22.0625 91.9375 C 21.496094 90.574219 21.210938 89.152344 21.210938 87.675781 C 21.214844 85.707031 21.703125 83.863281 22.679688 82.148438 L 27.28125 74.152344 L 40.980469 74.152344 C 44.972656 77.820312 49.59375 80.363281 54.839844 81.777344 Z M 54.839844 81.777344 " fill-opacity="1" fill-rule="nonzero"/></g><g clip-path="url(#63cb1c0b2d)"><path fill="#6fb669" d="M 118.539062 65.558594 C 118.527344 66.128906 118.460938 66.691406 118.339844 67.246094 C 118.214844 67.800781 118.042969 68.339844 117.8125 68.863281 C 117.585938 69.386719 117.3125 69.882812 116.988281 70.351562 C 116.664062 70.820312 116.296875 71.25 115.886719 71.648438 C 115.476562 72.046875 115.035156 72.402344 114.554688 72.714844 C 114.078125 73.027344 113.574219 73.289062 113.042969 73.503906 C 112.515625 73.71875 111.96875 73.882812 111.410156 73.988281 C 110.847656 74.097656 110.28125 74.152344 109.707031 74.152344 L 99.089844 74.152344 L 93.460938 65.050781 C 96.039062 60.183594 97.324219 55 97.320312 49.5 C 97.316406 47.757812 97.183594 46.027344 96.910156 44.304688 L 106.167969 38.933594 L 115.621094 55.046875 C 117.527344 58.292969 118.5 61.796875 118.539062 65.558594 Z M 118.539062 65.558594 " fill-opacity="1" fill-rule="nonzero"/></g><g clip-path="url(#38a5ee600d)"><path fill="#6fb669" d="M 63.6875 12.519531 L 61.460938 16.113281 C 59.148438 16.269531 56.875 16.660156 54.644531 17.28125 C 52.414062 17.902344 50.269531 18.746094 48.210938 19.808594 C 46.152344 20.871094 44.226562 22.128906 42.429688 23.585938 C 40.636719 25.042969 39.007812 26.667969 37.546875 28.457031 L 28.289062 23.085938 L 39.335938 5.230469 C 39.808594 4.460938 40.375 3.761719 41.027344 3.136719 C 41.683594 2.511719 42.40625 1.980469 43.195312 1.539062 C 43.988281 1.097656 44.824219 0.761719 45.699219 0.535156 C 46.578125 0.308594 47.472656 0.191406 48.378906 0.191406 L 49.53125 0.191406 C 49.53125 0.191406 56.609375 1.953125 63.6875 12.519531 Z M 63.6875 12.519531 " fill-opacity="1" fill-rule="nonzero"/></g><g clip-path="url(#b0e6430bee)"><path fill="#68a45d" d="M 63.6875 12.519531 C 56.609375 1.953125 49.53125 0.191406 49.53125 0.191406 L 48.378906 0.191406 C 47.476562 0.195312 46.589844 0.304688 45.71875 0.53125 C 44.847656 0.757812 44.019531 1.085938 43.230469 1.523438 C 42.441406 1.957031 41.722656 2.484375 41.070312 3.101562 C 40.417969 3.71875 39.851562 4.410156 39.378906 5.167969 C 39.800781 4.910156 40.238281 4.6875 40.695312 4.492188 C 41.160156 4.304688 41.644531 4.179688 42.144531 4.125 C 42.644531 4.070312 43.144531 4.085938 43.640625 4.171875 C 44.136719 4.257812 44.609375 4.410156 45.0625 4.628906 C 45.515625 4.847656 45.925781 5.125 46.300781 5.460938 C 50.085938 8.90625 53.476562 12.703125 56.472656 16.847656 C 58.117188 16.476562 59.777344 16.234375 61.460938 16.113281 Z M 63.6875 12.519531 " fill-opacity="1" fill-rule="nonzero"/></g><path fill="#68a45d" d="M 97.027344 45.300781 C 97.484375 48.695312 97.40625 52.082031 96.796875 55.453125 C 96.1875 58.824219 95.078125 62.023438 93.460938 65.050781 L 99.089844 74.152344 L 105.0625 74.152344 L 97.320312 61.828125 C 98.234375 52.726562 97.730469 47.878906 97.027344 45.300781 Z M 97.027344 45.300781 " fill-opacity="1" fill-rule="nonzero"/><path fill="#68a45d" d="M 24.75 84.71875 L 28.289062 79.4375 L 38.910156 79.4375 C 38.910156 79.4375 41.9375 85.390625 54.839844 86.339844 L 54.839844 81.777344 C 49.59375 80.363281 44.972656 77.820312 40.980469 74.152344 L 27.28125 74.152344 L 22.679688 82.148438 C 21.703125 83.863281 21.214844 85.707031 21.210938 87.675781 C 21.210938 89.152344 21.496094 90.574219 22.0625 91.9375 C 22.628906 93.300781 23.4375 94.503906 24.484375 95.550781 C 24.941406 96.011719 25.445312 96.425781 25.988281 96.78125 C 26.136719 96.855469 26.296875 96.902344 26.449219 96.96875 C 25.699219 96.15625 25.085938 95.25 24.613281 94.25 C 24.136719 93.25 23.824219 92.203125 23.671875 91.109375 C 23.523438 90.015625 23.539062 88.921875 23.722656 87.832031 C 23.90625 86.742188 24.246094 85.703125 24.75 84.71875 Z M 24.75 84.71875 " fill-opacity="1" fill-rule="nonzero"/><path fill="#68a45d" d="M 86.558594 73.589844 L 86.769531 73.800781 C 88.835938 71.851562 90.621094 69.675781 92.128906 67.273438 C 89.371094 68.992188 86.425781 70.285156 83.289062 71.148438 C 84.199219 72.203125 85.285156 73.015625 86.558594 73.589844 Z M 86.558594 73.589844 " fill-opacity="1" fill-rule="nonzero"/><path fill="#68a45d" d="M 51.050781 64.328125 C 50.363281 66.367188 49.917969 68.457031 49.707031 70.597656 C 49.5 72.796875 49.921875 74.867188 50.980469 76.8125 C 52.019531 78.414062 53.285156 79.816406 54.769531 81.019531 C 55.03125 81.296875 55.34375 81.496094 55.707031 81.621094 C 56.378906 79.699219 55.035156 77.65625 55.246094 75.648438 C 55.265625 75.113281 55.492188 74.675781 55.917969 74.347656 C 56.324219 74.140625 56.757812 74.046875 57.210938 74.066406 C 58.074219 74.09375 58.9375 74.058594 59.796875 73.960938 C 60.679688 73.867188 61.417969 73.492188 62.007812 72.832031 C 62.53125 72.039062 62.703125 71.175781 62.53125 70.242188 C 58.328125 68.675781 54.59375 66.367188 51.324219 63.3125 C 51.25 63.652344 51.15625 63.996094 51.050781 64.328125 Z M 51.050781 64.328125 " fill-opacity="1" fill-rule="nonzero"/><path fill="#68a45d" d="M 34.46875 37.753906 C 34.679688 38.554688 34.957031 39.328125 35.300781 40.078125 C 36.316406 42.171875 37.683594 44.003906 39.40625 45.574219 C 40.160156 46.269531 40.964844 46.902344 41.824219 47.464844 C 41.226562 45.253906 40.859375 43.007812 40.730469 40.71875 C 40.601562 38.433594 40.710938 36.160156 41.058594 33.894531 C 41.40625 31.632812 41.980469 29.425781 42.789062 27.28125 C 43.597656 25.136719 44.617188 23.097656 45.851562 21.167969 C 43.40625 22.683594 41.195312 24.488281 39.21875 26.574219 C 37.242188 28.65625 35.5625 30.957031 34.183594 33.476562 C 34 34.917969 34.097656 36.347656 34.46875 37.753906 Z M 34.46875 37.753906 " fill-opacity="1" fill-rule="nonzero"/><path fill="#527499" d="M 83.289062 71.148438 C 79.871094 72.113281 76.386719 72.515625 72.835938 72.359375 C 69.285156 72.207031 65.851562 71.5 62.53125 70.242188 C 62.703125 71.175781 62.53125 72.039062 62.007812 72.832031 C 61.417969 73.492188 60.679688 73.867188 59.796875 73.960938 C 58.9375 74.058594 58.074219 74.09375 57.210938 74.066406 C 56.757812 74.046875 56.324219 74.140625 55.917969 74.347656 C 55.492188 74.675781 55.265625 75.113281 55.246094 75.648438 C 55.035156 77.65625 56.378906 79.699219 55.707031 81.621094 C 55.34375 81.496094 55.03125 81.296875 54.769531 81.019531 C 53.285156 79.816406 52.019531 78.414062 50.980469 76.8125 C 49.921875 74.867188 49.5 72.796875 49.707031 70.597656 C 49.917969 68.457031 50.363281 66.367188 51.050781 64.328125 C 51.15625 63.996094 51.25 63.652344 51.324219 63.3125 C 49.023438 61.167969 47.066406 58.746094 45.453125 56.054688 C 43.835938 53.359375 42.628906 50.496094 41.824219 47.460938 C 40.964844 46.898438 40.160156 46.269531 39.40625 45.574219 C 37.683594 44.003906 36.316406 42.171875 35.300781 40.078125 C 34.957031 39.328125 34.679688 38.554688 34.46875 37.753906 C 34.097656 36.347656 34 34.917969 34.183594 33.476562 C 32.824219 35.929688 31.796875 38.511719 31.097656 41.226562 C 30.398438 43.941406 30.054688 46.699219 30.058594 49.5 C 30.058594 50.425781 30.097656 51.351562 30.175781 52.273438 C 30.253906 53.199219 30.367188 54.117188 30.523438 55.03125 C 30.675781 55.945312 30.867188 56.847656 31.097656 57.746094 C 31.324219 58.644531 31.59375 59.53125 31.894531 60.40625 C 32.199219 61.285156 32.539062 62.144531 32.914062 62.992188 C 33.289062 63.839844 33.699219 64.671875 34.144531 65.484375 C 34.589844 66.300781 35.070312 67.09375 35.578125 67.867188 C 36.089844 68.640625 36.632812 69.394531 37.207031 70.125 C 37.78125 70.851562 38.386719 71.558594 39.019531 72.238281 C 39.652344 72.914062 40.3125 73.566406 41 74.191406 C 41.6875 74.816406 42.398438 75.414062 43.136719 75.980469 C 43.875 76.546875 44.632812 77.078125 45.414062 77.582031 C 46.195312 78.085938 46.996094 78.554688 47.820312 78.992188 C 48.640625 79.429688 49.476562 79.832031 50.332031 80.199219 C 51.1875 80.566406 52.054688 80.898438 52.9375 81.195312 C 53.820312 81.492188 54.714844 81.75 55.617188 81.972656 C 58.265625 82.632812 60.957031 82.964844 63.6875 82.957031 C 65.816406 82.960938 67.925781 82.761719 70.015625 82.367188 C 72.105469 81.96875 74.140625 81.375 76.117188 80.59375 C 78.09375 79.808594 79.976562 78.84375 81.769531 77.703125 C 83.5625 76.558594 85.226562 75.261719 86.769531 73.800781 L 86.558594 73.589844 C 85.285156 73.015625 84.199219 72.203125 83.289062 71.148438 Z M 83.289062 71.148438 " fill-opacity="1" fill-rule="nonzero"/><path fill="#3f5977" d="M 35.371094 60.066406 L 33.261719 63.726562 C 33.851562 64.964844 34.511719 66.160156 35.25 67.316406 L 35.371094 67.109375 Z M 35.371094 60.066406 " fill-opacity="1" fill-rule="nonzero"/><path fill="#3f5977" d="M 81.390625 74.152344 L 74.308594 74.152344 L 67.160156 81.265625 L 65.550781 82.867188 C 68.535156 82.707031 71.445312 82.160156 74.28125 81.226562 Z M 81.390625 74.152344 " fill-opacity="1" fill-rule="nonzero"/><path fill="#57884e" d="M 67.707031 28.828125 C 67.535156 27.722656 67.054688 26.773438 66.273438 25.972656 C 64.320312 23.738281 61.96875 22.046875 59.21875 20.902344 L 60.632812 23.15625 L 60.652344 23.15625 L 66.261719 32.097656 C 66.742188 31.691406 67.109375 31.203125 67.363281 30.628906 C 67.617188 30.054688 67.730469 29.453125 67.707031 28.828125 Z M 67.707031 28.828125 " fill-opacity="1" fill-rule="nonzero"/><path fill="#3f5977" d="M 59.21875 20.902344 C 61.96875 22.046875 64.320312 23.738281 66.273438 25.972656 C 67.054688 26.773438 67.535156 27.722656 67.707031 28.828125 C 67.730469 29.453125 67.613281 30.054688 67.359375 30.628906 C 67.105469 31.203125 66.734375 31.691406 66.253906 32.097656 L 67.230469 33.652344 L 69.40625 34.304688 L 78.523438 37.03125 L 84.929688 38.933594 L 85.65625 36.996094 L 87.847656 31.1875 L 83.832031 29.992188 C 83.773438 30.769531 83.546875 31.496094 83.160156 32.171875 C 82.230469 33.59375 80.992188 34.65625 79.441406 35.359375 C 78.570312 35.859375 77.632812 36.113281 76.628906 36.117188 C 75.546875 35.988281 74.59375 35.566406 73.777344 34.847656 C 73.195312 34.441406 72.722656 33.929688 72.371094 33.3125 C 72.019531 32.695312 71.8125 32.035156 71.761719 31.328125 C 71.835938 30.222656 72.277344 29.289062 73.085938 28.527344 C 73.519531 28.097656 73.992188 27.714844 74.503906 27.382812 L 74.699219 27.253906 L 72.539062 26.609375 L 65.972656 16.140625 C 65.21875 16.089844 64.460938 16.042969 63.6875 16.042969 C 61.230469 16.046875 58.800781 16.316406 56.402344 16.851562 C 57.058594 17.691406 57.71875 18.578125 58.378906 19.5625 Z M 59.21875 20.902344 " fill-opacity="1" fill-rule="nonzero"/><path fill="#a3e187" d="M 89.230469 45.0625 C 88.136719 46.03125 87.21875 47.140625 86.46875 48.390625 C 86.484375 48.570312 86.515625 48.746094 86.527344 48.921875 C 86.558594 49.367188 86.667969 49.792969 86.859375 50.195312 C 87.054688 50.597656 87.3125 50.953125 87.640625 51.257812 C 87.96875 51.5625 88.34375 51.796875 88.761719 51.960938 C 89.179688 52.125 89.613281 52.207031 90.0625 52.207031 C 90.140625 52.207031 90.21875 52.207031 90.300781 52.207031 C 90.769531 52.175781 91.214844 52.058594 91.636719 51.851562 C 92.058594 51.644531 92.421875 51.363281 92.734375 51.011719 C 93.042969 50.660156 93.273438 50.261719 93.421875 49.820312 C 93.574219 49.375 93.632812 48.921875 93.601562 48.453125 C 93.480469 46.738281 93.214844 45.046875 92.796875 43.378906 C 92.175781 43.472656 91.574219 43.632812 90.992188 43.863281 C 90.339844 44.171875 89.753906 44.570312 89.230469 45.0625 Z M 89.230469 45.0625 " fill-opacity="1" fill-rule="nonzero"/><path fill="#a3e187" d="M 90.113281 54.097656 C 89.660156 53.972656 89.199219 53.9375 88.734375 53.992188 C 88.269531 54.050781 87.832031 54.191406 87.421875 54.421875 C 87.015625 54.652344 86.664062 54.949219 86.375 55.316406 C 86.085938 55.6875 85.878906 56.09375 85.753906 56.542969 C 85.609375 57.0625 85.449219 57.570312 85.273438 58.070312 C 85.117188 58.511719 85.050781 58.964844 85.074219 59.429688 C 85.097656 59.898438 85.210938 60.339844 85.414062 60.761719 C 85.617188 61.183594 85.890625 61.550781 86.242188 61.863281 C 86.589844 62.175781 86.984375 62.410156 87.429688 62.566406 C 87.871094 62.722656 88.328125 62.789062 88.796875 62.761719 C 89.265625 62.738281 89.710938 62.625 90.132812 62.425781 C 90.558594 62.222656 90.925781 61.949219 91.242188 61.601562 C 91.554688 61.253906 91.789062 60.863281 91.945312 60.421875 C 92.183594 59.765625 92.394531 59.101562 92.578125 58.425781 C 92.703125 57.976562 92.734375 57.519531 92.675781 57.054688 C 92.621094 56.59375 92.476562 56.160156 92.242188 55.753906 C 92.011719 55.347656 91.710938 55 91.34375 54.714844 C 90.972656 54.425781 90.5625 54.222656 90.113281 54.097656 Z M 90.113281 54.097656 " fill-opacity="1" fill-rule="nonzero"/><path fill="#84b1e8" d="M 83.601562 31.160156 C 83.65625 30.996094 83.671875 30.820312 83.710938 30.648438 C 83.675781 30.820312 83.652344 30.996094 83.601562 31.160156 Z M 83.601562 31.160156 " fill-opacity="1" fill-rule="nonzero"/><path fill="#84b1e8" d="M 82.507812 33.066406 C 82.414062 33.171875 82.3125 33.273438 82.214844 33.375 C 82.3125 33.269531 82.414062 33.171875 82.507812 33.066406 Z M 82.507812 33.066406 " fill-opacity="1" fill-rule="nonzero"/><path fill="#84b1e8" d="M 80.363281 34.84375 C 80.550781 34.730469 80.714844 34.605469 80.90625 34.480469 C 80.726562 34.605469 80.546875 34.730469 80.363281 34.84375 Z M 80.363281 34.84375 " fill-opacity="1" fill-rule="nonzero"/><path fill="#84b1e8" d="M 81.3125 34.179688 C 81.457031 34.066406 81.597656 33.949219 81.734375 33.828125 C 81.597656 33.953125 81.457031 34.074219 81.3125 34.179688 Z M 81.3125 34.179688 " fill-opacity="1" fill-rule="nonzero"/><path fill="#84b1e8" d="M 87.425781 32.300781 L 85.65625 36.996094 L 84.929688 38.933594 L 83.074219 38.386719 C 85.011719 41.449219 86.140625 44.785156 86.46875 48.390625 C 87.21875 47.140625 88.136719 46.03125 89.230469 45.0625 C 89.75 44.570312 90.335938 44.171875 90.980469 43.863281 C 91.566406 43.632812 92.167969 43.472656 92.789062 43.378906 C 91.785156 39.3125 90 35.617188 87.425781 32.300781 Z M 87.425781 32.300781 " fill-opacity="1" fill-rule="nonzero"/><path fill="#3f5977" d="M 83.808594 30.128906 C 83.785156 30.308594 83.75 30.484375 83.710938 30.65625 C 83.75 30.484375 83.785156 30.308594 83.808594 30.128906 Z M 83.808594 30.128906 " fill-opacity="1" fill-rule="nonzero"/><path fill="#3f5977" d="M 82.507812 33.066406 C 82.75 32.785156 82.96875 32.488281 83.160156 32.171875 C 82.96875 32.488281 82.75 32.785156 82.507812 33.066406 Z M 82.507812 33.066406 " fill-opacity="1" fill-rule="nonzero"/><path fill="#3f5977" d="M 80.90625 34.480469 C 81.042969 34.382812 81.179688 34.289062 81.3125 34.183594 C 81.179688 34.289062 81.042969 34.382812 80.90625 34.480469 Z M 80.90625 34.480469 " fill-opacity="1" fill-rule="nonzero"/><path fill="#3f5977" d="M 83.160156 32.171875 C 83.34375 31.851562 83.492188 31.515625 83.601562 31.160156 C 83.492188 31.515625 83.34375 31.851562 83.160156 32.171875 Z M 83.160156 32.171875 " fill-opacity="1" fill-rule="nonzero"/><path fill="#3f5977" d="M 82.214844 33.375 C 82.0625 33.535156 81.902344 33.6875 81.734375 33.835938 C 81.902344 33.6875 82.058594 33.535156 82.214844 33.375 Z M 82.214844 33.375 " fill-opacity="1" fill-rule="nonzero"/><path fill="#6284ab" d="M 85.65625 36.996094 L 87.425781 32.300781 C 86.984375 31.734375 86.527344 31.183594 86.054688 30.648438 L 83.832031 29.988281 C 83.832031 30.035156 83.808594 30.082031 83.804688 30.128906 C 83.78125 30.304688 83.75 30.480469 83.707031 30.65625 C 83.671875 30.832031 83.652344 31.007812 83.601562 31.171875 C 83.488281 31.523438 83.34375 31.859375 83.15625 32.179688 C 82.964844 32.496094 82.75 32.796875 82.503906 33.074219 C 82.410156 33.179688 82.3125 33.28125 82.214844 33.382812 C 82.058594 33.542969 81.902344 33.695312 81.730469 33.84375 C 81.597656 33.964844 81.457031 34.082031 81.3125 34.195312 C 81.167969 34.308594 81.042969 34.394531 80.902344 34.488281 C 80.726562 34.613281 80.550781 34.738281 80.359375 34.855469 C 81.382812 35.945312 82.285156 37.128906 83.074219 38.394531 L 84.929688 38.933594 Z M 85.65625 36.996094 " fill-opacity="1" fill-rule="nonzero"/><g clip-path="url(#7436c6ead8)"><path fill="#b7fc98" d="M 27.28125 74.152344 L 22.679688 82.148438 C 21.703125 83.863281 21.214844 85.707031 21.210938 87.675781 C 21.210938 89.152344 21.496094 90.574219 22.0625 91.9375 C 22.628906 93.300781 23.4375 94.503906 24.484375 95.550781 C 24.941406 96.011719 25.445312 96.425781 25.988281 96.78125 C 24.660156 96.164062 23.40625 95.417969 22.230469 94.542969 C 21.058594 93.667969 19.988281 92.683594 19.019531 91.585938 C 18.050781 90.488281 17.207031 89.300781 16.488281 88.03125 C 15.769531 86.757812 15.191406 85.425781 14.75 84.03125 L 9.476562 67.425781 C 9.042969 66.042969 8.824219 64.628906 8.820312 63.183594 L 8.820312 60.578125 C 8.824219 57.882812 9.542969 55.394531 10.980469 53.109375 L 17.671875 42.457031 L 35.371094 42.457031 L 35.371094 60.066406 L 33.261719 63.726562 Z M 27.28125 74.152344 " fill-opacity="1" fill-rule="nonzero"/></g><g clip-path="url(#9c0d207e27)"><path fill="#b7fc98" d="M 109.707031 74.152344 C 110.28125 74.152344 110.847656 74.097656 111.410156 73.988281 C 111.96875 73.882812 112.515625 73.71875 113.042969 73.503906 C 113.574219 73.289062 114.078125 73.027344 114.554688 72.714844 C 115.035156 72.402344 115.476562 72.046875 115.886719 71.648438 C 116.296875 71.25 116.664062 70.820312 116.988281 70.351562 C 117.3125 69.882812 117.585938 69.386719 117.8125 68.863281 C 118.042969 68.339844 118.214844 67.800781 118.339844 67.246094 C 118.460938 66.691406 118.527344 66.128906 118.539062 65.558594 C 118.554688 65.664062 118.5625 65.769531 118.558594 65.875 C 118.558594 68 118.25 70.082031 117.632812 72.113281 C 117.015625 74.148438 116.113281 76.046875 114.929688 77.816406 L 105.054688 92.539062 C 104.40625 93.5 103.652344 94.371094 102.789062 95.152344 C 101.929688 95.929688 100.984375 96.59375 99.957031 97.140625 C 98.929688 97.6875 97.851562 98.101562 96.722656 98.382812 C 95.59375 98.664062 94.449219 98.804688 93.285156 98.808594 L 77.847656 98.808594 L 69 86.480469 L 74.238281 81.265625 L 81.390625 74.152344 Z M 109.707031 74.152344 " fill-opacity="1" fill-rule="nonzero"/></g><g clip-path="url(#79d411c303)"><path fill="#b7fc98" d="M 88.664062 4.085938 L 95.546875 17.804688 L 90.964844 29.953125 L 90.238281 31.890625 L 83.832031 29.988281 L 74.714844 27.257812 L 72.539062 26.609375 L 65.953125 16.113281 L 65.9375 16.113281 L 63.6875 12.519531 C 56.609375 1.953125 49.53125 0.191406 49.53125 0.191406 L 82.328125 0.191406 C 82.984375 0.195312 83.628906 0.285156 84.261719 0.464844 C 84.894531 0.644531 85.488281 0.90625 86.046875 1.25 C 86.605469 1.59375 87.109375 2.003906 87.554688 2.488281 C 87.996094 2.96875 88.367188 3.5 88.664062 4.085938 Z M 88.664062 4.085938 " fill-opacity="1" fill-rule="nonzero"/></g></svg>